<mxfile host="app.diagrams.net" agent="Mozilla/5.0 (Macintosh; Intel Mac OS X 10_15_7) AppleWebKit/537.36 (KHTML, like Gecko) Chrome/130.0.0.0 Safari/537.36" version="24.8.4">
  <diagram name="第 1 页" id="WG_iKOHEn6SIYyIWv3OS">
    <mxGraphModel dx="1306" dy="1870" grid="1" gridSize="10" guides="1" tooltips="1" connect="1" arrows="1" fold="1" page="1" pageScale="1" pageWidth="827" pageHeight="1169" math="0" shadow="0">
      <root>
        <mxCell id="0" />
        <mxCell id="1" parent="0" />
        <mxCell id="F0Cdty95OyhPT-rjXJqa-31" style="edgeStyle=orthogonalEdgeStyle;rounded=0;orthogonalLoop=1;jettySize=auto;html=1;" edge="1" parent="1" target="F0Cdty95OyhPT-rjXJqa-15">
          <mxGeometry relative="1" as="geometry">
            <mxPoint x="225" y="610" as="sourcePoint" />
            <Array as="points">
              <mxPoint x="225" y="570" />
            </Array>
          </mxGeometry>
        </mxCell>
        <mxCell id="F0Cdty95OyhPT-rjXJqa-2" value="" style="rounded=0;whiteSpace=wrap;html=1;fillColor=none;dashed=1;" vertex="1" parent="1">
          <mxGeometry x="60" y="90" width="430" height="480" as="geometry" />
        </mxCell>
        <mxCell id="F0Cdty95OyhPT-rjXJqa-28" style="edgeStyle=orthogonalEdgeStyle;rounded=0;orthogonalLoop=1;jettySize=auto;html=1;exitX=0.5;exitY=0;exitDx=0;exitDy=0;" edge="1" parent="1" source="F0Cdty95OyhPT-rjXJqa-4" target="F0Cdty95OyhPT-rjXJqa-26">
          <mxGeometry relative="1" as="geometry" />
        </mxCell>
        <mxCell id="F0Cdty95OyhPT-rjXJqa-4" value="查询Redis港口数据" style="rounded=0;whiteSpace=wrap;html=1;fillColor=none;" vertex="1" parent="1">
          <mxGeometry x="340" y="295" width="120" height="60" as="geometry" />
        </mxCell>
        <mxCell id="F0Cdty95OyhPT-rjXJqa-5" style="edgeStyle=orthogonalEdgeStyle;rounded=0;orthogonalLoop=1;jettySize=auto;html=1;exitX=0.5;exitY=1;exitDx=0;exitDy=0;entryX=0.5;entryY=0;entryDx=0;entryDy=0;" edge="1" parent="1" source="F0Cdty95OyhPT-rjXJqa-6" target="F0Cdty95OyhPT-rjXJqa-9">
          <mxGeometry relative="1" as="geometry" />
        </mxCell>
        <mxCell id="F0Cdty95OyhPT-rjXJqa-6" value="查价" style="rounded=0;whiteSpace=wrap;html=1;fillColor=none;" vertex="1" parent="1">
          <mxGeometry x="165" y="390" width="120" height="60" as="geometry" />
        </mxCell>
        <mxCell id="F0Cdty95OyhPT-rjXJqa-22" style="edgeStyle=orthogonalEdgeStyle;rounded=0;orthogonalLoop=1;jettySize=auto;html=1;exitX=0.5;exitY=1;exitDx=0;exitDy=0;entryX=0.5;entryY=0;entryDx=0;entryDy=0;" edge="1" parent="1" source="F0Cdty95OyhPT-rjXJqa-8" target="F0Cdty95OyhPT-rjXJqa-21">
          <mxGeometry relative="1" as="geometry" />
        </mxCell>
        <mxCell id="F0Cdty95OyhPT-rjXJqa-8" value="开始" style="ellipse;whiteSpace=wrap;html=1;fillColor=none;" vertex="1" parent="1">
          <mxGeometry x="170" y="100" width="110" height="70" as="geometry" />
        </mxCell>
        <mxCell id="F0Cdty95OyhPT-rjXJqa-9" value="结束" style="ellipse;whiteSpace=wrap;html=1;fillColor=none;" vertex="1" parent="1">
          <mxGeometry x="170" y="480" width="110" height="70" as="geometry" />
        </mxCell>
        <mxCell id="F0Cdty95OyhPT-rjXJqa-10" value="单次询价" style="text;html=1;align=center;verticalAlign=middle;whiteSpace=wrap;rounded=0;" vertex="1" parent="1">
          <mxGeometry x="500" y="290" width="60" height="30" as="geometry" />
        </mxCell>
        <mxCell id="F0Cdty95OyhPT-rjXJqa-11" style="edgeStyle=orthogonalEdgeStyle;rounded=0;orthogonalLoop=1;jettySize=auto;html=1;exitX=0.5;exitY=1;exitDx=0;exitDy=0;entryX=0.5;entryY=0;entryDx=0;entryDy=0;" edge="1" parent="1" source="F0Cdty95OyhPT-rjXJqa-12" target="F0Cdty95OyhPT-rjXJqa-16">
          <mxGeometry relative="1" as="geometry" />
        </mxCell>
        <mxCell id="F0Cdty95OyhPT-rjXJqa-12" value="导入报价" style="ellipse;whiteSpace=wrap;html=1;fillColor=none;" vertex="1" parent="1">
          <mxGeometry x="175" y="-130" width="110" height="70" as="geometry" />
        </mxCell>
        <mxCell id="F0Cdty95OyhPT-rjXJqa-14" style="edgeStyle=orthogonalEdgeStyle;rounded=0;orthogonalLoop=1;jettySize=auto;html=1;exitX=0.5;exitY=1;exitDx=0;exitDy=0;entryX=0.5;entryY=0;entryDx=0;entryDy=0;" edge="1" parent="1" source="F0Cdty95OyhPT-rjXJqa-15" target="F0Cdty95OyhPT-rjXJqa-18">
          <mxGeometry relative="1" as="geometry" />
        </mxCell>
        <mxCell id="F0Cdty95OyhPT-rjXJqa-15" value="遍历是否结束" style="rhombus;whiteSpace=wrap;html=1;fillColor=none;" vertex="1" parent="1">
          <mxGeometry x="160" y="630" width="130" height="90" as="geometry" />
        </mxCell>
        <mxCell id="F0Cdty95OyhPT-rjXJqa-16" value="读取一条线路" style="rounded=0;whiteSpace=wrap;html=1;fillColor=none;" vertex="1" parent="1">
          <mxGeometry x="170" y="-20" width="120" height="60" as="geometry" />
        </mxCell>
        <mxCell id="F0Cdty95OyhPT-rjXJqa-18" value="结束" style="ellipse;whiteSpace=wrap;html=1;fillColor=none;" vertex="1" parent="1">
          <mxGeometry x="170" y="770" width="110" height="70" as="geometry" />
        </mxCell>
        <mxCell id="F0Cdty95OyhPT-rjXJqa-19" value="否" style="text;html=1;align=center;verticalAlign=middle;whiteSpace=wrap;rounded=0;" vertex="1" parent="1">
          <mxGeometry x="270" y="290" width="60" height="30" as="geometry" />
        </mxCell>
        <mxCell id="F0Cdty95OyhPT-rjXJqa-20" value="是" style="text;html=1;align=center;verticalAlign=middle;whiteSpace=wrap;rounded=0;" vertex="1" parent="1">
          <mxGeometry x="225" y="720" width="60" height="30" as="geometry" />
        </mxCell>
        <mxCell id="F0Cdty95OyhPT-rjXJqa-30" style="edgeStyle=orthogonalEdgeStyle;rounded=0;orthogonalLoop=1;jettySize=auto;html=1;exitX=0.5;exitY=1;exitDx=0;exitDy=0;entryX=0.5;entryY=0;entryDx=0;entryDy=0;" edge="1" parent="1" source="F0Cdty95OyhPT-rjXJqa-21" target="F0Cdty95OyhPT-rjXJqa-23">
          <mxGeometry relative="1" as="geometry" />
        </mxCell>
        <mxCell id="F0Cdty95OyhPT-rjXJqa-21" value="查询本地港口数据" style="rounded=0;whiteSpace=wrap;html=1;fillColor=#ffe6cc;strokeColor=#d79b00;" vertex="1" parent="1">
          <mxGeometry x="165" y="200" width="120" height="60" as="geometry" />
        </mxCell>
        <mxCell id="F0Cdty95OyhPT-rjXJqa-24" style="edgeStyle=orthogonalEdgeStyle;rounded=0;orthogonalLoop=1;jettySize=auto;html=1;exitX=0.5;exitY=1;exitDx=0;exitDy=0;entryX=0.5;entryY=0;entryDx=0;entryDy=0;" edge="1" parent="1" source="F0Cdty95OyhPT-rjXJqa-23" target="F0Cdty95OyhPT-rjXJqa-6">
          <mxGeometry relative="1" as="geometry" />
        </mxCell>
        <mxCell id="F0Cdty95OyhPT-rjXJqa-27" style="edgeStyle=orthogonalEdgeStyle;rounded=0;orthogonalLoop=1;jettySize=auto;html=1;exitX=1;exitY=0.5;exitDx=0;exitDy=0;entryX=0;entryY=0.5;entryDx=0;entryDy=0;" edge="1" parent="1" source="F0Cdty95OyhPT-rjXJqa-23" target="F0Cdty95OyhPT-rjXJqa-4">
          <mxGeometry relative="1" as="geometry" />
        </mxCell>
        <mxCell id="F0Cdty95OyhPT-rjXJqa-23" value="是否有值" style="rhombus;whiteSpace=wrap;html=1;fillColor=#ffe6cc;strokeColor=#d79b00;" vertex="1" parent="1">
          <mxGeometry x="160" y="290" width="130" height="70" as="geometry" />
        </mxCell>
        <mxCell id="F0Cdty95OyhPT-rjXJqa-25" value="是" style="text;html=1;align=center;verticalAlign=middle;whiteSpace=wrap;rounded=0;" vertex="1" parent="1">
          <mxGeometry x="215" y="360" width="60" height="30" as="geometry" />
        </mxCell>
        <mxCell id="F0Cdty95OyhPT-rjXJqa-29" style="edgeStyle=orthogonalEdgeStyle;rounded=0;orthogonalLoop=1;jettySize=auto;html=1;exitX=0;exitY=0.5;exitDx=0;exitDy=0;entryX=1;entryY=0.5;entryDx=0;entryDy=0;" edge="1" parent="1" source="F0Cdty95OyhPT-rjXJqa-26" target="F0Cdty95OyhPT-rjXJqa-21">
          <mxGeometry relative="1" as="geometry" />
        </mxCell>
        <mxCell id="F0Cdty95OyhPT-rjXJqa-26" value="写入本地缓存" style="rounded=0;whiteSpace=wrap;html=1;fillColor=#ffe6cc;strokeColor=#d79b00;" vertex="1" parent="1">
          <mxGeometry x="340" y="200" width="120" height="60" as="geometry" />
        </mxCell>
        <mxCell id="F0Cdty95OyhPT-rjXJqa-33" style="edgeStyle=orthogonalEdgeStyle;rounded=0;orthogonalLoop=1;jettySize=auto;html=1;exitX=0.5;exitY=1;exitDx=0;exitDy=0;entryX=0.395;entryY=-0.008;entryDx=0;entryDy=0;entryPerimeter=0;" edge="1" parent="1" source="F0Cdty95OyhPT-rjXJqa-16" target="F0Cdty95OyhPT-rjXJqa-2">
          <mxGeometry relative="1" as="geometry" />
        </mxCell>
        <mxCell id="F0Cdty95OyhPT-rjXJqa-34" style="edgeStyle=orthogonalEdgeStyle;rounded=0;orthogonalLoop=1;jettySize=auto;html=1;exitX=0;exitY=0.5;exitDx=0;exitDy=0;entryX=0.008;entryY=0.383;entryDx=0;entryDy=0;entryPerimeter=0;" edge="1" parent="1" source="F0Cdty95OyhPT-rjXJqa-15" target="F0Cdty95OyhPT-rjXJqa-16">
          <mxGeometry relative="1" as="geometry">
            <Array as="points">
              <mxPoint x="20" y="675" />
              <mxPoint x="20" y="3" />
            </Array>
          </mxGeometry>
        </mxCell>
      </root>
    </mxGraphModel>
  </diagram>
</mxfile>
